<svg xmlns="http://www.w3.org/2000/svg" viewBox="0 0 1257.79 122.75" width="1257.79" height="122.75" role="img" aria-label="SecondHuman.ai">
  <title>SecondHuman.ai</title>
  <defs>
    <linearGradient id="shGradientDark" x1="549.53" y1="0" x2="1074.07" y2="0" gradientUnits="userSpaceOnUse">
      <stop offset="0.00%" stop-color="#2979FF"></stop>
      <stop offset="27.15%" stop-color="#2F6CFF"></stop>
      <stop offset="50.69%" stop-color="#535BFF"></stop>
      <stop offset="73.67%" stop-color="#6A49FF"></stop>
      <stop offset="100.00%" stop-color="#7C4DFF"></stop>
    </linearGradient>
  </defs>
  <g fill-rule="nonzero">
    <path fill="#FFFFFF" d="M4.00 87.83H29.82Q30.38 93.36 33.65 96.27Q36.91 99.18 42.16 99.18Q47.55 99.18 50.67 96.70Q53.79 94.21 53.79 89.82Q53.79 86.13 51.30 83.72Q48.82 81.30 45.21 79.74Q41.59 78.18 34.92 76.20Q25.28 73.22 19.18 70.24Q13.08 67.26 8.68 61.45Q4.28 55.63 4.28 46.27Q4.28 32.37 14.35 24.50Q24.43 16.62 40.60 16.62Q57.05 16.62 67.12 24.50Q77.19 32.37 77.90 46.41H51.66Q51.38 41.59 48.11 38.82Q44.85 36.06 39.74 36.06Q35.35 36.06 32.65 38.40Q29.96 40.74 29.96 45.13Q29.96 49.96 34.50 52.65Q39.04 55.35 48.68 58.47Q58.33 61.73 64.35 64.71Q70.38 67.69 74.78 73.36Q79.18 79.04 79.18 87.97Q79.18 96.48 74.85 103.43Q70.52 110.38 62.30 114.50Q54.07 118.61 42.87 118.61Q31.94 118.61 23.29 115.06Q14.64 111.52 9.46 104.57Q4.28 97.62 4.00 87.83Z M168.26 83.86H113.36Q113.93 91.23 118.11 95.13Q122.30 99.04 128.40 99.04Q137.48 99.04 141.02 91.38H166.84Q164.85 99.18 159.67 105.42Q154.50 111.66 146.70 115.21Q138.89 118.75 129.25 118.75Q117.62 118.75 108.54 113.79Q99.46 108.82 94.35 99.60Q89.25 90.38 89.25 78.04Q89.25 65.70 94.28 56.48Q99.32 47.26 108.40 42.30Q117.48 37.33 129.25 37.33Q140.74 37.33 149.67 42.16Q158.61 46.98 163.65 55.91Q168.68 64.85 168.68 76.77Q168.68 80.17 168.26 83.86ZM143.86 70.38Q143.86 64.14 139.60 60.45Q135.35 56.77 128.96 56.77Q122.87 56.77 118.68 60.31Q114.50 63.86 113.50 70.38Z M216.34 37.33Q231.23 37.33 241.23 45.13Q251.23 52.94 254.35 67.12H228.54Q225.28 58.04 215.91 58.04Q209.25 58.04 205.28 63.22Q201.30 68.40 201.30 78.04Q201.30 87.69 205.28 92.87Q209.25 98.04 215.91 98.04Q225.28 98.04 228.54 88.96H254.35Q251.23 102.87 241.16 110.81Q231.09 118.75 216.34 118.75Q204.71 118.75 195.70 113.79Q186.70 108.82 181.66 99.60Q176.62 90.38 176.62 78.04Q176.62 65.70 181.66 56.48Q186.70 47.26 195.70 42.30Q204.71 37.33 216.34 37.33Z M262.44 78.04Q262.44 65.84 267.83 56.55Q273.22 47.26 282.58 42.30Q291.94 37.33 303.57 37.33Q315.21 37.33 324.57 42.30Q333.93 47.26 339.32 56.55Q344.71 65.84 344.71 78.04Q344.71 90.24 339.25 99.53Q333.79 108.82 324.35 113.79Q314.92 118.75 303.29 118.75Q291.66 118.75 282.37 113.79Q273.08 108.82 267.76 99.60Q262.44 90.38 262.44 78.04ZM320.03 78.04Q320.03 68.54 315.28 63.43Q310.52 58.33 303.57 58.33Q296.48 58.33 291.80 63.36Q287.12 68.40 287.12 78.04Q287.12 87.55 291.73 92.65Q296.34 97.76 303.29 97.76Q310.24 97.76 315.13 92.65Q320.03 87.55 320.03 78.04Z M436.34 71.38V117.62H412.23V74.64Q412.23 66.70 408.11 62.30Q404.00 57.90 397.05 57.90Q390.10 57.90 385.99 62.30Q381.87 66.70 381.87 74.64V117.62H357.62V38.47H381.87V48.96Q385.56 43.72 391.80 40.67Q398.04 37.62 405.84 37.62Q419.74 37.62 428.04 46.62Q436.34 55.63 436.34 71.38Z M483.29 37.33Q491.09 37.33 497.55 40.60Q504.00 43.86 507.69 49.39V12.65H531.94V117.62H507.69V106.27Q504.28 111.94 497.97 115.35Q491.66 118.75 483.29 118.75Q473.50 118.75 465.56 113.72Q457.62 108.68 453.01 99.39Q448.40 90.10 448.40 77.90Q448.40 65.70 453.01 56.48Q457.62 47.26 465.56 42.30Q473.50 37.33 483.29 37.33ZM490.38 58.47Q483.15 58.47 478.11 63.65Q473.08 68.82 473.08 77.90Q473.08 86.98 478.11 92.30Q483.15 97.62 490.38 97.62Q497.62 97.62 502.65 92.37Q507.69 87.12 507.69 78.04Q507.69 68.96 502.65 63.72Q497.62 58.47 490.38 58.47Z"></path>
    <path fill="url(#shGradientDark)" d="M635.77 18.04V117.62H611.52V76.62H573.79V117.62H549.53V18.04H573.79V57.05H611.52V18.04Z M731.38 38.47V117.62H707.12V106.84Q703.43 112.09 697.12 115.28Q690.81 118.47 683.15 118.47Q674.07 118.47 667.12 114.43Q660.17 110.38 656.34 102.72Q652.51 95.06 652.51 84.71V38.47H676.62V81.45Q676.62 89.39 680.74 93.79Q684.85 98.18 691.80 98.18Q698.89 98.18 703.01 93.79Q707.12 89.39 707.12 81.45V38.47Z M882.01 71.38V117.62H857.90V74.64Q857.90 66.98 853.86 62.79Q849.82 58.61 842.72 58.61Q835.63 58.61 831.59 62.79Q827.55 66.98 827.55 74.64V117.62H803.43V74.64Q803.43 66.98 799.39 62.79Q795.35 58.61 788.26 58.61Q781.16 58.61 777.12 62.79Q773.08 66.98 773.08 74.64V117.62H748.82V38.47H773.08V48.40Q776.77 43.43 782.72 40.52Q788.68 37.62 796.20 37.62Q805.13 37.62 812.16 41.45Q819.18 45.28 823.15 52.37Q827.26 45.84 834.35 41.73Q841.45 37.62 849.82 37.62Q864.57 37.62 873.29 46.55Q882.01 55.49 882.01 71.38Z M929.11 37.33Q937.48 37.33 943.79 40.74Q950.10 44.14 953.50 49.67V38.47H977.76V117.62H953.50V106.41Q949.96 111.94 943.65 115.35Q937.33 118.75 928.96 118.75Q919.32 118.75 911.38 113.72Q903.43 108.68 898.82 99.39Q894.21 90.10 894.21 77.90Q894.21 65.70 898.82 56.48Q903.43 47.26 911.38 42.30Q919.32 37.33 929.11 37.33ZM936.20 58.47Q928.96 58.47 923.93 63.65Q918.89 68.82 918.89 77.90Q918.89 86.98 923.93 92.30Q928.96 97.62 936.20 97.62Q943.43 97.62 948.47 92.37Q953.50 87.12 953.50 78.04Q953.50 68.96 948.47 63.72Q943.43 58.47 936.20 58.47Z M1074.07 71.38V117.62H1049.96V74.64Q1049.96 66.70 1045.84 62.30Q1041.73 57.90 1034.78 57.90Q1027.83 57.90 1023.72 62.30Q1019.60 66.70 1019.60 74.64V117.62H995.35V38.47H1019.60V48.96Q1023.29 43.72 1029.53 40.67Q1035.77 37.62 1043.57 37.62Q1057.48 37.62 1065.77 46.62Q1074.07 55.63 1074.07 71.38Z"></path>
    <path fill="#8A8D94" d="M1087.83 105.70Q1087.83 100.03 1091.87 96.20Q1095.91 92.37 1102.30 92.37Q1108.54 92.37 1112.58 96.20Q1116.62 100.03 1116.62 105.70Q1116.62 111.23 1112.58 114.99Q1108.54 118.75 1102.30 118.75Q1095.91 118.75 1091.87 114.99Q1087.83 111.23 1087.83 105.70Z M1161.02 37.33Q1169.39 37.33 1175.70 40.74Q1182.01 44.14 1185.42 49.67V38.47H1209.67V117.62H1185.42V106.41Q1181.87 111.94 1175.56 115.35Q1169.25 118.75 1160.88 118.75Q1151.23 118.75 1143.29 113.72Q1135.35 108.68 1130.74 99.39Q1126.13 90.10 1126.13 77.90Q1126.13 65.70 1130.74 56.48Q1135.35 47.26 1143.29 42.30Q1151.23 37.33 1161.02 37.33ZM1168.11 58.47Q1160.88 58.47 1155.84 63.65Q1150.81 68.82 1150.81 77.90Q1150.81 86.98 1155.84 92.30Q1160.88 97.62 1168.11 97.62Q1175.35 97.62 1180.38 92.37Q1185.42 87.12 1185.42 78.04Q1185.42 68.96 1180.38 63.72Q1175.35 58.47 1168.11 58.47Z M1224.99 17.19Q1224.99 11.52 1229.04 7.76Q1233.08 4.00 1239.46 4.00Q1245.70 4.00 1249.74 7.76Q1253.79 11.52 1253.79 17.19Q1253.79 22.72 1249.74 26.48Q1245.70 30.24 1239.46 30.24Q1233.08 30.24 1229.04 26.48Q1224.99 22.72 1224.99 17.19ZM1251.52 38.47V117.62H1227.26V38.47Z"></path>
  </g>
</svg>